name D:\school\WTK\thesis\model\3dpredictsim\Results\Batchsim_tmt_linear_v2\Pog_s1_tmt_aCst_d00_k800_ig24_pas.mot
datacolumns 128
datarows 4
range 1.07895591 1.11132459
endheader
time	pelvis_tilt	pelvis_list	pelvis_rotation	pelvis_tx	pelvis_ty	pelvis_tz	hip_flexion_l	hip_adduction_l	hip_rotation_l	hip_flexion_r	hip_adduction_r	hip_rotation_r	knee_angle_l	knee_angle_r	ankle_angle_l	ankle_angle_r	subtalar_angle_l	subtalar_angle_r	tmt_angle_l	tmt_angle_r	mtp_angle_l	mtp_angle_r	lumbar_extension	lumbar_bending	lumbar_rotation	arm_flex_l	arm_add_l	arm_rot_l	arm_flex_r	arm_add_r	arm_rot_r	elbow_flex_l	elbow_flex_r	pro_sup_l	pro_sup_r	glut_med1_l/activation	glut_med2_l/activation	glut_med3_l/activation	glut_min1_l/activation	glut_min2_l/activation	glut_min3_l/activation	semimem_l/activation	semiten_l/activation	bifemlh_l/activation	bifemsh_l/activation	sar_l/activation	add_long_l/activation	add_brev_l/activation	add_mag1_l/activation	add_mag2_l/activation	add_mag3_l/activation	tfl_l/activation	pect_l/activation	grac_l/activation	glut_max1_l/activation	glut_max2_l/activation	glut_max3_l/activation	iliacus_l/activation	psoas_l/activation	quad_fem_l/activation	gem_l/activation	peri_l/activation	rect_fem_l/activation	vas_med_l/activation	vas_int_l/activation	vas_lat_l/activation	med_gas_l/activation	lat_gas_l/activation	soleus_l/activation	tib_post_l/activation	flex_dig_l/activation	flex_hal_l/activation	tib_ant_l/activation	per_brev_l/activation	per_long_l/activation	per_tert_l/activation	ext_dig_l/activation	ext_hal_l/activation	ercspn_l/activation	intobl_l/activation	extobl_l/activation	glut_med1_r/activation	glut_med2_r/activation	glut_med3_r/activation	glut_min1_r/activation	glut_min2_r/activation	glut_min3_r/activation	semimem_r/activation	semiten_r/activation	bifemlh_r/activation	bifemsh_r/activation	sar_r/activation	add_long_r/activation	add_brev_r/activation	add_mag1_r/activation	add_mag2_r/activation	add_mag3_r/activation	tfl_r/activation	pect_r/activation	grac_r/activation	glut_max1_r/activation	glut_max2_r/activation	glut_max3_r/activation	iliacus_r/activation	psoas_r/activation	quad_fem_r/activation	gem_r/activation	peri_r/activation	rect_fem_r/activation	vas_med_r/activation	vas_int_r/activation	vas_lat_r/activation	med_gas_r/activation	lat_gas_r/activation	soleus_r/activation	tib_post_r/activation	flex_dig_r/activation	flex_hal_r/activation	tib_ant_r/activation	per_brev_r/activation	per_long_r/activation	per_tert_r/activation	ext_dig_r/activation	ext_hal_r/activation	ercspn_r/activation	intobl_r/activation	extobl_r/activation	
          1.07895591	         -2.91962623	          0.84254867	          5.13388970	          1.34869489	          0.87130078	         -0.00272977	        -18.24493813	          1.27374071	          5.91480624	         26.55508710	         -0.42580254	         -3.80455193	         -4.89611648	         -7.37879039	         -9.06862872	          5.88587337	          6.78986976	          4.03958811	          1.38018023	          0.04328650	         27.26132648	         -0.09912880	          0.56761003	         -3.15006675	         -1.61840002	          3.75546968	        -13.47069616	         12.28341115	         -8.57710001	        -13.45247457	         13.33813156	         25.73471582	         16.62414343	         86.51662706	         86.51662706	          0.26136437	          0.08377182	          0.07227172	          0.25372639	          0.15555206	          0.08713881	          0.05000038	          0.05000003	          0.05000003	          0.05000003	          0.09409046	          0.05000076	          0.05000003	          0.05000007	          0.05000025	          0.05000022	          0.23037115	          0.05000014	          0.05000008	          0.05000121	          0.05000073	          0.05000044	          0.37622864	          0.67283373	          0.05000007	          0.05000100	          0.05899130	          0.31663051	          0.05799609	          0.06406377	          0.06024065	          0.20106563	          0.29007669	          0.23562590	          0.23918295	          0.21974052	          0.29681816	          0.05000000	          0.08702954	          0.14779832	          0.05000003	          0.05000000	          0.05000002	          0.05000000	          0.05000000	          0.05000000	          0.05154506	          0.06970971	          0.05000018	          0.05000008	          0.05000014	          0.05899124	          0.07212252	          0.06959944	          0.15701236	          0.05899149	          0.05000010	          0.05000050	          0.06818352	          0.08157137	          0.12351665	          0.14247484	          0.05000040	          0.05000026	          0.06959920	          0.05899140	          0.09128481	          0.15266278	          0.05000001	          0.05000002	          0.06752417	          0.05899128	          0.05000016	          0.05000002	          0.05000008	          0.05000008	          0.05000007	          0.05000000	          0.05000003	          0.05000000	          0.05327723	          0.05899131	          0.05899130	          0.44976374	          0.28279448	          0.19175895	          0.14030094	          0.46004980	          0.24297985	          0.05096524	          0.14643981	          0.13979093	
          1.08974547	         -2.90296836	          0.89933815	          5.28913983	          1.36557201	          0.86996018	         -0.00259270	        -18.10598687	          1.12845091	          5.69987128	         26.15177750	         -0.26510595	         -3.58586504	         -6.94620778	         -7.36904766	         -9.77077313	          5.39041330	          7.87792476	          3.58443889	          1.27987171	          0.04514194	         28.17383668	         -0.07183734	          0.78256934	         -2.97668425	         -1.67861871	          3.56081510	        -13.49778224	         12.61069311	         -9.77410158	        -13.44982573	         13.16235938	         26.57322198	         16.64958510	         86.51662706	         86.51662706	          0.22152792	          0.07100354	          0.06125627	          0.21505410	          0.13184323	          0.07385735	          0.05000020	          0.05000001	          0.05000001	          0.05000003	          0.07974949	          0.13014243	          0.15396904	          0.05000120	          0.05000047	          0.05000006	          0.19525860	          0.10955089	          0.05771963	          0.05000021	          0.05000012	          0.05000013	          0.31888487	          0.60899281	          0.06937351	          0.05000011	          0.05000006	          0.26837053	          0.12435784	          0.15539319	          0.09479709	          0.17041973	          0.24586397	          0.21730085	          0.20272756	          0.18624839	          0.25157799	          0.05000000	          0.07376474	          0.13776991	          0.05000001	          0.05000000	          0.05000001	          0.05000003	          0.05000002	          0.06439703	          0.05899125	          0.05908479	          0.24941139	          0.05899134	          0.05899132	          0.05000036	          0.06112980	          0.05899129	          0.13322648	          0.05000023	          0.05000088	          0.09688165	          0.11764993	          0.20450178	          0.19591138	          0.17417855	          0.05000002	          0.06960123	          0.05899120	          0.05000012	          0.07737144	          0.21030468	          0.05899130	          0.05426020	          0.05723232	          0.05000012	          0.10257443	          0.06921863	          0.19736191	          0.21792821	          0.16202262	          0.05000001	          0.05000001	          0.05156048	          0.05000000	          0.05000003	          0.05000002	          0.61024587	          0.30999404	          0.16273757	          0.48367001	          0.54423534	          0.36450306	          0.05000000	          0.12411984	          0.11848437	
          1.10053503	         -2.87908363	          0.93775252	          5.41633603	          1.38273492	          0.86853289	         -0.00244882	        -17.84911646	          0.97340899	          5.47677310	         25.66646392	         -0.11522262	         -3.33055709	         -9.22004189	         -7.96289966	        -10.47410485	          4.63329429	          8.96277087	          3.13050825	          1.13330465	          0.03851676	         28.73087327	         -0.03544203	          1.01813083	         -2.76922158	         -1.73147508	          3.29381533	        -13.53154390	         12.90035560	        -10.98428436	        -13.45456123	         13.02330545	         27.40546347	         16.68403461	         86.51662706	         86.51662706	          0.18776322	          0.06018137	          0.05899128	          0.18227614	          0.11174804	          0.06260021	          0.05000032	          0.05000003	          0.05000006	          0.05000000	          0.06759430	          0.18316308	          0.30294594	          0.12076181	          0.05899173	          0.12903489	          0.16549780	          0.09285347	          0.05000006	          0.05314913	          0.05899113	          0.05899130	          0.27028128	          0.51617703	          0.05899125	          0.05899127	          0.05000014	          0.22746620	          0.13485828	          0.13485831	          0.13485826	          0.14444481	          0.20839003	          0.18418043	          0.17182837	          0.15786093	          0.21323315	          0.05000000	          0.06252173	          0.14609667	          0.05000001	          0.05000001	          0.05000002	          0.05000565	          0.06959945	          0.06959945	          0.05000001	          0.07195825	          0.21576374	          0.05000004	          0.05000004	          0.05000009	          0.05181256	          0.05000002	          0.11292046	          0.05000000	          0.05000002	          0.08211521	          0.09971805	          0.20525351	          0.22831635	          0.17589150	          0.05899131	          0.05899288	          0.05000009	          0.12762103	          0.13734336	          0.18438989	          0.05000001	          0.05000001	          0.14650918	          0.05000054	          0.08694032	          0.06959941	          0.23503777	          0.25729506	          0.18919685	          0.05000000	          0.05000001	          0.05000000	          0.05899118	          0.06143770	          0.05899141	          0.51723382	          0.33652227	          0.17884414	          0.40995031	          0.48677733	          0.30894647	          0.05000000	          0.10520182	          0.10042529	
          1.11132459	         -2.85039571	          0.95772986	          5.51591915	          1.40001017	          0.86699050	         -0.00231454	        -17.48140157	          0.81438562	          5.24493473	         25.06417760	          0.00018252	         -3.05022277	        -11.68485139	         -8.87414019	        -11.10443437	          4.01255101	         10.00493868	          2.63952567	          0.92819659	         -0.01041679	         28.72937520	         -0.18680515	          1.25760971	         -2.53045627	         -1.77335028	          2.98215291	        -13.56872392	         13.15213506	        -12.17132487	        -13.47205371	         12.96256012	         28.23180129	         16.69913105	         86.51662706	         86.51662706	          0.19494115	          0.05100869	          0.05000000	          0.16563489	          0.09471571	          0.05305886	          0.06788576	          0.05000003	          0.05000002	          0.05000004	          0.05899170	          0.18738928	          0.26081428	          0.10235565	          0.05000064	          0.10936777	          0.14027308	          0.08824451	          0.05000015	          0.05000010	          0.05000007	          0.05000010	          0.22908572	          0.48203554	          0.05000000	          0.05000003	          0.05000000	          0.19279639	          0.11430354	          0.11430356	          0.11430352	          0.12242891	          0.17662777	          0.15610813	          0.14563875	          0.13380020	          0.18073273	          0.05000007	          0.11698628	          0.12382904	          0.10756431	          0.15630798	          0.05000102	          0.06947404	          0.05899128	          0.05899129	          0.23488877	          0.25760443	          0.38756927	          0.28651902	          0.19664954	          0.21721633	          0.06959935	          0.08412330	          0.09688146	          0.07429277	          0.05899136	          0.06959944	          0.08451930	          0.17396932	          0.19351701	          0.18463143	          0.05000006	          0.05000203	          0.06967182	          0.18731250	          0.18569215	          0.19985575	          0.05477789	          0.05000010	          0.12417865	          0.05899115	          0.21690811	          0.05899125	          0.19921394	          0.21807883	          0.16035997	          0.05000002	          0.05000004	          0.05000000	          0.05000000	          0.05207354	          0.05000012	          0.56300105	          0.28523190	          0.15158520	          0.65680892	          0.58638451	          0.35191057	          0.05000001	          0.08916723	          0.08511873	
